<?xml version="1.0" ?><!DOCTYPE svg  PUBLIC '-//W3C//DTD SVG 1.1//EN'  'http://www.w3.org/Graphics/SVG/1.1/DTD/svg11.dtd'><svg enable-background="new 0 0 512 512" height="512px" id="Layer_1" version="1.1" viewBox="0 0 512 512" width="512px" xml:space="preserve" xmlns="http://www.w3.org/2000/svg" xmlns:xlink="http://www.w3.org/1999/xlink"><g id="behance"><rect fill="#107BF4" height="20" width="70" x="296.5" y="180.5"/><path d="M333.536,213.898c-64.688,0-64.622,64.329-64.622,64.329s-4.446,63.664,64.622,63.664   c0,0,57.581,3.609,57.581-45.391h-29.613c0,0,0.974,19.19-26.977,19.19c0,0-29.597,1.81-29.597-28.19h87.17   C392.1,287.5,401.63,213.898,333.536,213.898z M359.842,264.5h-55.248c0,0,3.611-25.937,29.597-25.937   C360.194,238.563,359.842,264.5,359.842,264.5z" fill="#107BF4"/><path d="M230.761,247.305c0,0,25.667-1.92,25.667-32.016S235.436,170.5,208.844,170.5h-48.976h-1.433H120.5v168   h37.935h1.433h48.976c0,0,53.422,1.807,53.422-49.536C262.266,288.964,264.599,247.305,230.761,247.305z M159.5,200.5h43.039h6.304   c0,0,11.896,0.235,11.896,17.731c0,17.488-7.008,20.269-14.934,20.269H159.5V200.5z M206.363,308.67   c-1.294,0.016-2.399-0.17-3.136-0.17H159.5v-44h49.344c0,0,17.717-0.635,17.717,22.707   C226.561,306.873,213.338,308.506,206.363,308.67z" fill="#107BF4"/><path d="M254.5,16.5c-131.996,0-239,107.004-239,239s107.004,239,239,239s239-107.004,239-239   S386.496,16.5,254.5,16.5z M412.892,413.892C370.584,456.2,314.333,479.5,254.5,479.5c-59.833,0-116.084-23.3-158.392-65.608   C53.8,371.584,30.5,315.333,30.5,255.5c0-59.833,23.3-116.084,65.608-158.392C138.416,54.8,194.667,31.5,254.5,31.5   c59.833,0,116.084,23.3,158.392,65.608C455.2,139.416,478.5,195.667,478.5,255.5C478.5,315.333,455.2,371.584,412.892,413.892z" fill="#107BF4"/></g></svg>